<?xml version="1.0" encoding="utf-8"?>
<!-- Generator: Adobe Illustrator 28.4.1, SVG Export Plug-In . SVG Version: 6.00 Build 0)  -->
<svg version="1.1" id="Capa_1" xmlns="http://www.w3.org/2000/svg" xmlns:xlink="http://www.w3.org/1999/xlink" x="0px" y="0px"
	 viewBox="0 0 449.5 449.5"  xml:space="preserve" >
<g>
	<path d="M385.3,145.8l-17.3-23c-0.7-0.9-1.7-1.5-2.8-1.6l-70.4-9.8l1.7-12.3l25.5,3.6c2.3,0.3,4.4-1.3,4.8-3.6l5.6-40.3
		c0.3-2.3-1.3-4.4-3.6-4.8l-25.5-3.6l2.2-15.5c0.3-2.3-1.3-4.4-3.6-4.8l-30.7-4.3c-2.3-0.3-4.4,1.3-4.8,3.6L264.2,45l-70.4-9.8
		c-1.1-0.2-2.2,0.1-3.1,0.8l-23,17.3c-0.9,0.7-1.5,1.7-1.6,2.8c-0.2,1.1,0.1,2.2,0.8,3.1l17.3,23c0.7,0.9,1.7,1.5,2.8,1.6l70.4,9.8
		l-1.7,12.3l-25.5-3.6c-2.3-0.3-4.4,1.3-4.8,3.6l-5.6,40.3c-0.3,2.3,1.3,4.4,3.6,4.8l25.5,3.6l-5.2,37.6c2.8,0.4,5.6,0.7,8.4,0.9
		l4.7-34l21.2,11.2l-3.1,22.6c2.9-0.1,5.7-0.3,8.6-0.5L288,160l70.4,9.8c1.1,0.2,2.2-0.1,3.1-0.8l23-17.3
		C386.3,150.3,386.7,147.6,385.3,145.8z M274.2,34.8l22.3,3.1l-1.6,11.3l-22.3-3.1L274.2,34.8z M190,75.7l-13.7-18.2l18.2-13.7
		l129,18L319,93.7L190,75.7z M286.6,108.9l-0.2,1.3l-22.3-3.1l1.3-9.4L286.6,108.9z M357.8,161.2l-129-18l4.4-31.9l129,18l13.7,18.2
		L357.8,161.2z"/>
	<g id="folder_x5F_image">
		<path d="M344.3,193.7v-8.3c0-2.9-2.3-5.2-5.2-5.2H162.3c-2.9,0-5.2-2.3-5.2-5.2v-8.3c0-2.9-2.3-5.2-5.2-5.2H68.6
			c-2.9,0-5.2,2.3-5.2,5.2v251.8c0,2.9,2.3,5.2,5.2,5.2h289.2c2.9,0,5.2-2.3,5.2-5.2l0-214.3c0-2.9-2.3-5.2-5.2-5.2h-8.3
			C346.7,198.9,344.3,196.6,344.3,193.7z M337.6,404.9H88.9c-3.7,0-6.8-3-6.8-6.8V186.9c0-3.7,3-6.8,6.8-6.8h42.7
			c3.7,0,6.8,3,6.8,6.8v24c0,3.7,3,6.8,6.8,6.8h192.5c3.7,0,6.8,3,6.8,6.8v173.8C344.3,401.9,341.3,404.9,337.6,404.9z"/>
		<path d="M269.4,273.8h-18.7L232,255.1h-37.5l-18.7,18.7H157c0,0-18.7,0-18.7,18.7c0,10,0,44.1,0,56.2c0,18.7,18.7,18.7,18.7,18.7
			s99.7,0,112.4,0c18.7,0,18.7-18.7,18.7-18.7s0-37.5,0-56.2C288.1,273.8,269.4,273.8,269.4,273.8z M213.2,348.8
			c-15.5,0-28.1-12.6-28.1-28.1c0-15.5,12.6-28.1,28.1-28.1c15.5,0,28.1,12.6,28.1,28.1C241.3,336.2,228.7,348.8,213.2,348.8z"/>
	</g>
</g>
</svg>
